<?xml version="1.0" standalone="no"?>
<!DOCTYPE svg PUBLIC "-//W3C//DTD SVG 20010904//EN"
 "http://www.w3.org/TR/2001/REC-SVG-20010904/DTD/svg10.dtd">
<svg version="1.0" xmlns="http://www.w3.org/2000/svg"
 width="860.000000pt" height="927.000000pt" viewBox="0 0 860.000000 927.000000"
 preserveAspectRatio="xMidYMid meet">

<g transform="translate(0.000000,927.000000) scale(0.100000,-0.100000)"
fill="black" stroke="none">
<path d="M3916 8845 c-225 -32 -407 -85 -572 -168 -564 -283 -990 -821 -1149
-1452 -64 -251 -90 -535 -74 -807 l9 -158 -40 -61 c-104 -162 -122 -384 -54
-689 73 -326 185 -552 348 -708 l76 -72 44 -132 c73 -222 173 -418 333 -650
l73 -107 7 -218 c8 -292 10 -283 -80 -323 -182 -82 -646 -215 -957 -275 -301
-58 -440 -100 -625 -190 -388 -188 -681 -526 -878 -1010 -53 -130 -71 -217
-63 -301 26 -260 200 -426 590 -566 615 -220 1803 -338 3396 -338 1802 0 3032
144 3595 419 254 125 363 251 395 459 20 126 -16 254 -139 502 -113 226 -221
380 -376 535 -125 124 -254 217 -410 295 -162 81 -320 131 -565 180 -442 89
-829 199 -1038 296 l-75 34 5 254 5 253 85 129 c106 161 176 284 233 413 44
99 115 299 115 324 0 7 25 35 56 61 174 151 302 403 380 751 24 104 28 143 28
290 1 116 -3 186 -13 220 -16 57 -65 161 -89 188 -13 15 -15 61 -17 330 -1
334 -8 406 -62 632 -59 251 -182 536 -321 745 -278 419 -726 756 -1141 860
-224 56 -282 62 -621 66 -231 2 -341 -1 -414 -11z m-420 -1900 c428 -386 916
-682 1374 -834 113 -37 330 -93 338 -86 2 2 -54 109 -123 240 -69 130 -155
296 -191 368 l-66 132 109 -106 c332 -325 646 -542 897 -618 l70 -22 22 28
c13 16 47 69 76 120 29 51 56 92 60 93 7 0 2 -52 -13 -139 -16 -94 -15 -97 31
-93 48 5 82 -14 107 -61 45 -82 8 -371 -78 -607 -69 -188 -202 -340 -297 -340
-14 0 -23 -7 -26 -22 -43 -228 -83 -352 -166 -523 -140 -285 -322 -515 -542
-685 -534 -413 -1086 -399 -1613 42 -113 94 -159 144 -266 288 -196 262 -327
545 -375 808 -15 82 -19 92 -38 92 -63 1 -160 80 -221 180 -66 109 -126 291
-160 484 -44 254 12 377 152 340 19 -5 33 -40 100 -247 l78 -242 6 235 c9 310
37 500 104 706 108 331 277 506 543 563 2 1 50 -42 108 -94z m1805 -3603 c11
-167 23 -207 79 -262 55 -53 199 -130 358 -191 61 -24 112 -46 112 -50 0 -16
-170 -154 -284 -230 -372 -251 -798 -379 -1261 -379 -437 0 -844 115 -1210
343 -89 55 -279 202 -322 249 l-23 24 93 33 c229 83 389 178 426 253 24 50 41
153 41 256 0 39 3 72 6 72 3 0 49 -29 102 -64 190 -125 392 -212 599 -258 141
-32 424 -32 565 0 202 45 414 137 598 260 58 39 107 69 109 66 3 -2 8 -57 12
-122z"/>
</g>
</svg>
