<?xml version="1.0" encoding="UTF-8"?>
<!DOCTYPE svg PUBLIC "-//W3C//DTD SVG 1.1//EN" "http://www.w3.org/Graphics/SVG/1.1/DTD/svg11.dtd">
<!-- Creator: CorelDRAW -->
<svg xmlns="http://www.w3.org/2000/svg" xml:space="preserve" width="215.258mm" height="208.903mm" version="1.1" style="shape-rendering:geometricPrecision; text-rendering:geometricPrecision; image-rendering:optimizeQuality; fill-rule:evenodd; clip-rule:evenodd"
viewBox="0 0 4575.11 4440.04"
 xmlns:xlink="http://www.w3.org/1999/xlink"
 xmlns:xodm="http://www.corel.com/coreldraw/odm/2003">
 <defs>
  <style type="text/css">
   <![CDATA[
    .fil0 {fill:white}
   ]]>
  </style>
 </defs>
 <g id="Слой_x0020_1">
  <metadata id="CorelCorpID_0Corel-Layer"/>
  <path class="fil0" d="M2251.45 1562.27c164.19,-54.87 319.5,127.94 233,281.12 -64.89,114.91 -75.87,13.14 -75.81,207.94 0.02,78.39 20.63,197.18 -43.98,234.77 -90.6,52.71 -151.28,-24.33 -152.3,-106.96 -0.75,-60.68 13.86,-232.97 -16.27,-268.56 -23.32,-27.54 -42.75,-30.82 -65.01,-77.81 -17.46,-36.87 -23.09,-81.46 -14.09,-125.05 15.03,-72.83 67.87,-123.2 134.46,-145.45zm504.1 -497.47c-120.2,9.25 -683.92,2.25 -850.52,2.25 -326.33,0 -616.97,-74.38 -617.13,249.46 -0.14,284.92 0.13,569.86 0.13,854.78 0,121.23 -22.2,304.72 43.38,386.06 84.53,104.85 190.19,83.76 348.68,83.76l1282.15 0c152.22,0 261.27,11.13 328.25,-104.11 47.2,-81.21 29.82,-284.45 29.82,-395.71 0,-259.35 7.19,-607.87 -0.15,-855.14 -4.57,-153.85 -90.52,-197.05 -211.85,-220.78 -15.88,-106.67 5.18,-245.63 -10.87,-363.38 -106.53,-781.96 -1141.56,-967.44 -1494.7,-265.86 -39.42,78.3 -149.9,406.67 -37.97,441.73 29.56,9.26 141.92,4.6 182.9,4.76 211.41,0.83 41.04,-131.17 209.34,-353.8 248.69,-328.97 718.84,-181.97 791.01,168.5 12.16,59.07 17.89,308.52 7.55,367.47z"/>
  <path class="fil0" d="M4074.45 3476.59c-44.07,-16.11 -89.26,-48.81 -127.45,-70.32 -45.08,-25.39 -98.41,-52.13 -125.27,7.48 -43.54,96.61 135.51,120.7 182.09,182.17 -102.17,74.13 -223.37,92.68 -181.42,181.63 42.43,89.97 191.11,-44.9 252.52,-66.44 0.1,85.26 -30.52,247.64 64.61,248.02 97.71,0.39 65.59,-170.47 65.82,-246.8 82.6,26.54 216.27,160.37 254.64,60.47 32.08,-83.5 -84.02,-108.92 -183.5,-176.9 44.02,-52.47 233.54,-92.24 179.55,-188.73 -47.07,-84.1 -190.29,48.55 -250.07,68.35 -3.01,-81.72 31.5,-248.8 -66.51,-247.72 -95.9,1.06 -63.07,167.27 -65,248.77z"/>
  <path class="fil0" d="M570.65 3595.91c61.08,-62.85 236.56,-95.52 179.83,-186.87 -32.28,-51.98 -82.29,-25.62 -126.9,0.32 -36.97,21.49 -83.88,51.62 -123.42,67.91 -1.03,-82.7 30.23,-245.65 -64.41,-248.29 -97.48,-2.72 -64.75,167.37 -66.6,247.3 -61.32,-19.66 -208.47,-157.54 -252.53,-63.41 -44.53,95.13 139.41,134.11 182.21,183.06 -88.55,71.57 -227.79,89.78 -181.49,182.29 45.76,91.42 196.41,-50.01 251.93,-64.84 1.1,76.93 -31.87,247.64 66.07,246.5 93.48,-1.09 63.91,-171.24 64.88,-247.58 93.89,34.74 209.17,155.31 252.43,65.49 44.8,-93.02 -100.98,-112.23 -182,-181.85z"/>
  <path class="fil0" d="M3040.6 3595.91c39.61,-56.2 228.79,-83.63 182.31,-185.25 -42.47,-92.86 -192.92,46.32 -253.38,64.97 -1.59,-76.34 32.44,-250.81 -67.01,-247.72 -93.35,2.9 -61.9,170.02 -62.62,247.23 -63.68,-12.52 -199.96,-157.95 -251.6,-65.67 -40.57,72.49 46.71,101.99 126,148.92 9.33,5.52 21.41,11.67 29.18,16.46l24.43 21.07c-88.37,67.93 -231.59,98.03 -178.64,185.2 49.79,81.99 166.49,-42.17 250.06,-70.15 3.25,80.68 -31.8,244.87 63.17,248.07 94.47,3.19 67.05,-163.18 66.51,-246.4 53.33,14.99 216.46,158.9 254.87,60.95 36.28,-92.52 -101.76,-111.18 -183.28,-177.66z"/>
  <path class="fil0" d="M1605.31 3475.65c-62.5,-18.93 -215.01,-161.06 -254.99,-59.11 -37.56,95.77 136.99,123.85 184.31,179.37 -27.57,21.77 -82.19,50.4 -115.65,68.9 -40.45,22.36 -98.38,50.93 -65.39,114.3 45.26,86.92 193.09,-49.84 252.24,-66.48 -0.54,83.22 -27.95,249.59 66.51,246.4 94.98,-3.21 59.92,-167.39 63.17,-248.07 79.23,26.54 209.04,156.91 252.72,65.33 41.7,-87.42 -90.57,-110.62 -181.31,-180.37l29.32 -23.78c11.87,-6.9 17.66,-9.85 28.96,-16.58 21.78,-12.97 39.75,-24.19 60.99,-35.94 32.41,-17.92 96.17,-46.1 60.33,-110.15 -51.64,-92.29 -187.92,53.15 -251.6,65.67 -0.73,-77.97 32.04,-253.33 -69.33,-247.11 -91.32,5.6 -58.73,172.14 -60.3,247.64z"/>
  <path class="fil0" d="M2100 4405.69c7.35,-16.19 7.77,-111.46 4.6,-133.76 -6.02,-42.34 -34.09,-50.79 -79.12,-51.09l-540.34 0.33c-195.29,0 -274.79,-49.12 -248.67,162.22 6.57,53.12 35.48,52.38 83.35,52.38l540.22 -0.26c66.07,0 216.58,21.67 239.96,-29.82z"/>
  <path class="fil0" d="M2.74 4398.19c14.51,60.38 168.99,37.31 237.74,37.31l540.11 0.25c51.85,0.02 80.7,0.43 87.5,-45.87 2.64,-17.99 2.51,-115.77 -1.82,-131.39 -16.72,-60.31 -166.9,-37.32 -235.9,-37.32l-540.24 -0.24c-45.55,-0.13 -79.8,2.29 -87.94,43.33 -3.05,15.37 -2.96,119.32 0.55,133.93z"/>
  <path class="fil0" d="M2470.52 4383.2c7.06,79.1 148.36,52.31 221.79,52.31l539.93 0.09c40.8,0.24 87.49,6.52 102.94,-32.67 7.66,-19.42 7.54,-109.58 4.1,-132.29 -7.78,-51.32 -38.18,-49.9 -91.77,-49.67l-675.35 0.07c-84.66,-0.46 -116.51,-4.59 -101.63,162.16z"/>
  <path class="fil0" d="M3707.81 4398.19c8.96,42.21 51.64,37.71 101.62,37.44l675.14 0.12c52.02,0.06 80.96,0.59 88.45,-45.72 3.04,-18.76 3.01,-115.31 -1.73,-131.89 -17.72,-62.04 -172.34,-36.97 -236.93,-36.97l-540.25 -0.24c-47.65,-0.11 -78.89,2.17 -86.84,43.54 -3.23,16.81 -2.98,117.16 0.54,133.72z"/>
 </g>
</svg>
